<svg id="Layer_1" data-name="Layer 1" xmlns="http://www.w3.org/2000/svg" viewBox="0 0 82.04 17.12"><defs><style>.cls-1,.cls-3{fill:#24589c;}.cls-2{fill:#181716;}.cls-3{fill-rule:evenodd;}</style></defs><path class="cls-1" d="M2.8,15.74V7.88H5.17L6.6,13.24,8,7.88h2.38v7.86H8.92V9.55L7.36,15.74H5.83L4.27,9.55v6.19Zm9.17,0V7.88H17.8V9.21H13.56V11H17.5v1.33H13.56v2.14H18v1.32Zm8-7.86h5.43v6.54h.69v3H24.73V15.74H19.78v1.72H18.46v-3h.67a7.29,7.29,0,0,0,.64-2.34,28.43,28.43,0,0,0,.16-3.37V7.88ZM21.44,9.2a15.33,15.33,0,0,1-.65,5.22h3V9.2Z" transform="translate(-2.8 -5.02)"/><path class="cls-2" d="M49.71,7.88H51.3v3.35A1.08,1.08,0,0,0,52,11a5.5,5.5,0,0,0,.58-1.22,3.36,3.36,0,0,1,1-1.59,3.07,3.07,0,0,1,1.59-.31h.23V9h-.22a1.42,1.42,0,0,0-.71.13.91.91,0,0,0-.37.36,8.06,8.06,0,0,0-.41,1,4,4,0,0,1-.31.68,1.74,1.74,0,0,1-.6.51,1.66,1.66,0,0,1,.87.61,7.57,7.57,0,0,1,.76,1.29l1.07,2.15H53.63l-.94-2a1.56,1.56,0,0,0-.09-.17s-.09-.15-.2-.37a2.39,2.39,0,0,0-.5-.72,1,1,0,0,0-.6-.15v3.44H49.71V7.88Zm6.69,7.86V7.88H58V11h3.11V7.88h1.59v7.86H61.09V12.3H58v3.44Zm7.94-7.86h1.49v5.23L69,7.88H70.6v7.86H69.11V10.61l-3.18,5.13H64.34V7.88Zm8,0h5.32V9.2H73.89v6.54H72.3V7.88Zm12.54,7.86H83.11L82.43,14H79.28l-.64,1.78H77L80,7.88h1.67l3.15,7.86Zm-2.92-3.11L80.84,9.71l-1.07,2.92Z" transform="translate(-2.8 -5.02)"/><path class="cls-3" d="M46.34,11.35a4,4,0,0,1-.24,1.31,2,2,0,0,1-.6,1l.54.16v.62l-.45.14a9.09,9.09,0,0,0-.16.94,5,5,0,0,0,.16,1.34L46,17v.59L37.31,22l-5.64-4.83a3.23,3.23,0,0,1-.91-2.67A1.25,1.25,0,0,1,31,13.7a2.07,2.07,0,0,1,.59-.37,13.33,13.33,0,0,1,2.08-.48l-1.51-.7v-.49l.58-.15a5.56,5.56,0,0,0,.18-1.41c0-.11,0-.26,0-.46L30.08,9V8.54l.37,0a3.72,3.72,0,0,0,.2-1.27A3.78,3.78,0,0,0,30.45,6h-.37V5.59l5-.57,8.94.58a1.47,1.47,0,0,1,1.06.56,2,2,0,0,1,.42,1.31,1.8,1.8,0,0,1-1.08,1.67,2,2,0,0,1,1.17.21,1.69,1.69,0,0,1,.51.9,3.62,3.62,0,0,1,.2,1.1Zm-.46,0a2.44,2.44,0,0,0-.32-1.32c-.2-.35-.42-.52-.66-.49l-5.43.65a5.23,5.23,0,0,1,.34,1.94,8.13,8.13,0,0,1-.35,2.3L45.2,13.1c.17,0,.33-.22.46-.57a3.18,3.18,0,0,0,.22-1.15ZM36.63,7.23a1.8,1.8,0,0,0-.47-1.34A1.34,1.34,0,0,0,35,5.48l-4.4.4a4.15,4.15,0,0,1,.21,1.35,4.78,4.78,0,0,1-.21,1.42l4.08.66.24,0a1.52,1.52,0,0,0,1.19-.59,2.37,2.37,0,0,0,.52-1.51Zm3,4.93a5.23,5.23,0,0,0-.35-1.94l-1.66-.31a20.75,20.75,0,0,1-2.32.23l-.25,0-2-.43q0,.32,0,.48a6,6,0,0,1-.24,1.58l6.44,2.71a8.13,8.13,0,0,0,.35-2.3Zm5.88,5a5.36,5.36,0,0,1-.24-1.58,4.3,4.3,0,0,1,.16-1l-8,2.72a5.23,5.23,0,0,0-.19,1.51,10.21,10.21,0,0,0,.21,2.06l8-3.75Zm-8.24,3.75a11,11,0,0,1-.2-2.06,5.21,5.21,0,0,1,.2-1.51l-5-3.3a.78.78,0,0,0-.44-.15c-.38,0-.56.31-.55.92a2.25,2.25,0,0,0,.55,1.71l5.46,4.39Z" transform="translate(-2.8 -5.02)"/><path class="cls-2" d="M52.52,19.51a.77.77,0,0,0-.83-.68c-.38,0-1,.27-1,1.34,0,.68.29,1.31,1,1.31a.82.82,0,0,0,.83-.73h.79a1.57,1.57,0,0,1-1.64,1.39c-1,0-1.72-.68-1.72-2s.76-2,1.73-2a1.5,1.5,0,0,1,1.63,1.34Z" transform="translate(-2.8 -5.02)"/><path class="cls-2" d="M59.26,18.27v.65h-2v.78H59.1v.65H57.26v1h2.09V22H56.47V18.27Z" transform="translate(-2.8 -5.02)"/><path class="cls-2" d="M63.33,22h-.79V18.27h1.73a1.1,1.1,0,0,1,1.17,1.2,1.16,1.16,0,0,1-1.21,1.21h-.9Zm0-2h.73a.52.52,0,0,0,.59-.59c0-.37-.2-.52-.69-.52h-.63Z" transform="translate(-2.8 -5.02)"/><path class="cls-2" d="M68.63,18.27h1.86c.92,0,1.16.57,1.16,1a.76.76,0,0,1-.46.78.87.87,0,0,1,.58.91c0,.32-.12,1.12-1.52,1.12H68.63Zm.79,1.48h.92c.31,0,.55-.12.55-.43s-.21-.4-.57-.4h-.9Zm0,1.64h1c.39,0,.61-.17.61-.55s-.28-.46-.56-.46h-1Z" transform="translate(-2.8 -5.02)"/><path class="cls-2" d="M75.75,20.9h0l1.5-2.63h.88V22h-.78V19.35h0L75.81,22H75V18.27h.79Z" transform="translate(-2.8 -5.02)"/><path class="cls-2" d="M83.91,19.51a.77.77,0,0,0-.83-.68c-.38,0-1,.27-1,1.34,0,.68.28,1.31,1,1.31a.82.82,0,0,0,.83-.73h.79a1.57,1.57,0,0,1-1.64,1.39c-1,0-1.72-.68-1.72-2s.76-2,1.73-2a1.5,1.5,0,0,1,1.63,1.34Z" transform="translate(-2.8 -5.02)"/><text x="-2.8" y="-5.02"/></svg>