<?xml version="1.0" encoding="utf-8"?>
<!-- Generator: Adobe Illustrator 15.1.0, SVG Export Plug-In . SVG Version: 6.00 Build 0)  -->
<!DOCTYPE svg PUBLIC "-//W3C//DTD SVG 1.1//EN" "http://www.w3.org/Graphics/SVG/1.1/DTD/svg11.dtd">
<svg version="1.1" xmlns="http://www.w3.org/2000/svg" xmlns:xlink="http://www.w3.org/1999/xlink" x="0px" y="0px" width="368.5px"
	 height="141.73px" viewBox="0 0 368.5 141.73" enable-background="new 0 0 368.5 141.73" xml:space="preserve">
<g id="Слой_1" display="none">
	<text transform="matrix(0.9563 0 0 1 138.3838 105.8223)" display="inline"><tspan x="0" y="0" fill="#344C57" font-family="'FreeSetC'" font-size="16.6136">Комплексный </tspan><tspan x="0" y="18.535" fill="#344C57" font-family="'FreeSetC'" font-size="16.6136">медицинский консалтинг</tspan></text>
	
		<line display="inline" fill="none" stroke="#344C57" stroke-width="2" stroke-miterlimit="10" x1="4.467" y1="135.172" x2="365.903" y2="135.172"/>
	
		<line display="inline" fill="none" stroke="#344C57" stroke-width="2" stroke-miterlimit="10" x1="139.009" y1="83.14" x2="366.009" y2="83.14"/>
	<rect x="28.692" y="25.716" display="inline" fill="#344C57" width="31.329" height="56.59"/>
	<rect x="95.759" y="3.842" display="inline" fill="#91202B" width="31.318" height="78.464"/>
	<rect x="5.052" y="32.985" display="inline" fill="#2A3234" width="31.646" height="49.32"/>
	<rect x="51.348" y="19.005" display="inline" fill="#778B96" width="31.022" height="63.301"/>
	<rect x="73.729" y="11.502" display="inline" fill="#AE9FAD" width="30.672" height="70.804"/>
	<rect x="28.692" y="115.693" display="inline" fill="#344C57" width="31.329" height="12.052"/>
	<rect x="95.759" y="115.693" display="inline" fill="#91202B" width="31.318" height="12.052"/>
	<rect x="5.052" y="115.693" display="inline" fill="#2A3234" width="31.646" height="12.051"/>
	<rect x="51.348" y="115.693" display="inline" fill="#778B96" width="31.022" height="12.051"/>
	<rect x="73.729" y="115.693" display="inline" fill="#AE9FAD" width="30.672" height="12.052"/>
	<text transform="matrix(1 0 0 1 138.145 27.4824)" display="inline" fill="#344C57" font-family="'FreeSetC'" font-size="23.736">высшая школа</text>
	
		<text transform="matrix(0.93 0 0 1 138.145 49.5791)" display="inline" fill="#344C57" font-family="'FreeSetC'" font-size="17.107">организации и управлЕния</text>
	
		<text transform="matrix(0.93 0 0 1 138.145 71.6758)" display="inline" fill="#344C57" font-family="'FreeSetC'" font-size="17.107">здравоохранением</text>
	
		<text transform="matrix(0.9841 0 0 1 3.0093 106.7109)" display="inline" fill="#344C57" font-family="'FreeSetC'" font-size="19.6987" letter-spacing="1.016">ВШОУЗ-кмк</text>
</g>
<g id="Слой_1__x28_копия_x29_">
	<g>
		<path fill="#344C57" d="M141.021,94.191v4.702v0.665h0.016l0.381-0.416l4.75-4.951h1.334l-5.401,5.5l6.004,6.131h-1.477
			l-5.321-5.566l-0.27-0.315l-0.016,0.017v0.549v5.316h-1.048V94.191H141.021z"/>
		<path fill="#344C57" d="M153.664,94.059c3.399,0,5.035,2.841,5.035,5.965c0,3.838-2.208,5.932-5.035,5.932
			c-2.828,0-5.036-2.094-5.036-5.932C148.628,96.899,150.264,94.059,153.664,94.059z M153.664,105.008
			c1.938,0,3.907-1.494,3.907-4.984c0-3.489-1.97-5.018-3.907-5.018c-1.938,0-3.908,1.528-3.908,5.018
			C149.756,103.514,151.726,105.008,153.664,105.008z"/>
		<path fill="#344C57" d="M167.059,104.775l0.46-1.545l3.701-9.039h1.652v11.631h-1.048v-9.006l0.032-1.578h-0.063l-0.54,1.528
			l-3.685,9.056h-1.08l-3.686-9.056l-0.54-1.528h-0.063l0.032,1.578v9.006h-1.048V94.191h1.652l3.701,9.039l0.461,1.545H167.059z"/>
		<path fill="#344C57" d="M183.873,94.191v11.631h-1.048V95.139h-5.798v10.684h-1.048V94.191H183.873z"/>
		<path fill="#344C57" d="M194.654,94.191v11.631h-1.049V95.139h-4.272v3.074c0,3.954,0.048,7.742-2.604,7.742
			c-0.16,0-0.445-0.016-0.779-0.115l0.064-0.914c0.189,0.049,0.46,0.082,0.635,0.082c1.922,0,1.637-4.918,1.637-6.846v-3.971
			H194.654z"/>
		<path fill="#344C57" d="M203.152,94.191v0.947h-4.354v4.203h4.146v0.947h-4.146v4.586h4.654v0.947h-5.702V94.191H203.152z"/>
		<path fill="#344C57" d="M206.804,94.191v4.702v0.665h0.017l0.381-0.416l4.749-4.951h1.334l-5.4,5.5l6.005,6.131h-1.478
			l-5.321-5.566l-0.27-0.315l-0.017,0.017v0.549v5.316h-1.048V94.191H206.804z"/>
		<path fill="#344C57" d="M222.711,105.507c-0.651,0.216-1.604,0.448-2.779,0.448c-3.86,0-5.575-2.824-5.575-5.766
			c0-3.09,1.62-6.131,5.687-6.131c0.984,0,1.763,0.133,2.557,0.448l-0.095,0.997c-1.207-0.498-2.24-0.498-2.558-0.498
			c-2.796,0-4.464,2.275-4.464,5.2c0,2.975,1.97,4.802,4.369,4.802c1,0,2.033-0.199,2.858-0.548V105.507z"/>
		<path fill="#344C57" d="M225.916,94.191v5.135h5.782v-5.135h1.048v11.631h-1.048v-5.549h-5.782v5.549h-1.048V94.191H225.916z"/>
		<path fill="#344C57" d="M236.892,94.191v4.769h1.779c0.667,0,3.971,0,3.971,3.406c0,1.795-1.318,3.456-3.431,3.456h-3.367V94.191
			H236.892z M236.892,104.875h2.002c1.826,0,2.62-1.213,2.62-2.475c0-2.327-1.953-2.493-2.858-2.493h-1.764V104.875z M245.47,94.191
			v11.631h-1.049V94.191H245.47z"/>
		<path fill="#344C57" d="M249.614,94.191v8.74l-0.063,1.412h0.048l0.604-1.18l5.385-8.973h1.191v11.631h-1.049v-8.74l0.063-1.412
			h-0.047l-0.557,1.097l-5.433,9.056h-1.19V94.191H249.614z M252.664,92.38c0.429,0,1.159-0.083,1.843-0.947l0.477,0.632
			c-0.572,0.797-1.414,1.296-2.319,1.296s-1.747-0.499-2.319-1.296l0.477-0.632C251.505,92.297,252.235,92.38,252.664,92.38z"/>
		<path fill="#344C57" d="M145.85,123.311l0.46-1.545l3.701-9.04h1.652v11.632h-1.048v-9.006l0.032-1.579h-0.063l-0.54,1.528
			l-3.685,9.057h-1.08l-3.686-9.057l-0.54-1.528h-0.063l0.032,1.579v9.006h-1.048v-11.632h1.652l3.701,9.04l0.461,1.545H145.85z"/>
		<path fill="#344C57" d="M160.027,112.726v0.947h-4.353v4.204h4.146v0.947h-4.146v4.586h4.654v0.947h-5.703v-11.632H160.027z"/>
		<path fill="#344C57" d="M170.708,112.726v10.685h1.287v3.473h-1.048v-2.525h-8.038v2.525h-1.048v-3.473h0.937
			c1.604-2.509,1.557-4.52,1.557-7.494v-3.19H170.708z M165.402,113.673v2.376c0,2.526,0.08,4.687-1.414,7.361h5.67v-9.737H165.402z
			"/>
		<path fill="#344C57" d="M175.136,112.726v8.74l-0.063,1.413h0.048l0.619-1.18l5.369-8.974h1.191v11.632h-1.048v-8.74l0.063-1.413
			h-0.048l-0.556,1.097l-5.433,9.057h-1.191v-11.632H175.136z"/>
		<path fill="#344C57" d="M186.302,112.726v10.685h5.909v-10.685h1.049v10.685h1.318v3.473h-1.049v-2.525h-8.275v-11.632H186.302z"
			/>
		<path fill="#344C57" d="M197.719,112.726v8.74l-0.063,1.413h0.047l0.619-1.18l5.369-8.974h1.191v11.632h-1.048v-8.74l0.063-1.413
			h-0.048l-0.556,1.097l-5.433,9.057h-1.191v-11.632H197.719z"/>
		<path fill="#344C57" d="M208.886,112.726v5.135h5.781v-5.135h1.049v11.632h-1.049v-5.55h-5.781v5.55h-1.049v-11.632H208.886z"/>
		<path fill="#344C57" d="M226.38,124.042c-0.651,0.216-1.604,0.448-2.779,0.448c-3.86,0-5.575-2.825-5.575-5.766
			c0-3.091,1.62-6.132,5.687-6.132c0.984,0,1.763,0.133,2.557,0.448l-0.095,0.997c-1.207-0.498-2.24-0.498-2.558-0.498
			c-2.796,0-4.464,2.276-4.464,5.201c0,2.975,1.97,4.802,4.369,4.802c1,0,2.033-0.199,2.858-0.548V124.042z"/>
		<path fill="#344C57" d="M229.441,112.726v4.702v0.665h0.016l0.382-0.415l4.749-4.952h1.334l-5.4,5.5l6.005,6.132h-1.478
			l-5.321-5.566l-0.271-0.316l-0.016,0.017v0.549v5.317h-1.048v-11.632H229.441z"/>
		<path fill="#344C57" d="M239.509,112.726v8.74l-0.063,1.413h0.048l0.619-1.18l5.369-8.974h1.191v11.632h-1.049v-8.74l0.063-1.413
			h-0.047l-0.557,1.097l-5.433,9.057h-1.19v-11.632H239.509z"/>
		<path fill="#344C57" d="M250.675,112.726v8.74l-0.063,1.413h0.048l0.604-1.18l5.385-8.974h1.191v11.632h-1.049v-8.74l0.063-1.413
			h-0.047l-0.557,1.097l-5.433,9.057h-1.19v-11.632H250.675z M253.725,110.914c0.429,0,1.159-0.082,1.843-0.947l0.477,0.632
			c-0.572,0.798-1.414,1.296-2.319,1.296s-1.747-0.498-2.319-1.296l0.477-0.632C252.565,110.832,253.296,110.914,253.725,110.914z"
			/>
		<path fill="#344C57" d="M266.022,112.726v4.702v0.665h0.016l0.382-0.415l4.749-4.952h1.334l-5.4,5.5l6.005,6.132h-1.478
			l-5.321-5.566l-0.271-0.316l-0.016,0.017v0.549v5.317h-1.048v-11.632H266.022z"/>
		<path fill="#344C57" d="M278.522,112.593c3.399,0,5.035,2.842,5.035,5.966c0,3.838-2.208,5.932-5.035,5.932
			s-5.035-2.094-5.035-5.932C273.487,115.435,275.123,112.593,278.522,112.593z M278.522,123.543c1.938,0,3.907-1.495,3.907-4.984
			c0-3.49-1.97-5.019-3.907-5.019c-1.938,0-3.908,1.528-3.908,5.019C274.614,122.048,276.584,123.543,278.522,123.543z"/>
		<path fill="#344C57" d="M286.945,112.726v5.135h5.782v-5.135h1.048v11.632h-1.048v-5.55h-5.782v5.55h-1.048v-11.632H286.945z"/>
		<path fill="#344C57" d="M304.439,124.042c-0.651,0.216-1.604,0.448-2.779,0.448c-3.86,0-5.575-2.825-5.575-5.766
			c0-3.091,1.62-6.132,5.687-6.132c0.984,0,1.763,0.133,2.557,0.448l-0.095,0.997c-1.207-0.498-2.24-0.498-2.558-0.498
			c-2.796,0-4.464,2.276-4.464,5.201c0,2.975,1.97,4.802,4.369,4.802c1,0,2.033-0.199,2.858-0.548V124.042z"/>
		<path fill="#344C57" d="M311.565,112.726l4.416,11.632h-1.128l-1.224-3.207h-5.496l-1.223,3.207h-1.128l4.416-11.632H311.565z
			 M310.866,113.806l-0.365,1.097l-2.018,5.301h4.797l-2.017-5.301l-0.365-1.097H310.866z"/>
		<path fill="#344C57" d="M325.95,112.726v11.632h-1.049v-10.685h-4.272v3.074c0,3.955,0.048,7.743-2.605,7.743
			c-0.158,0-0.444-0.017-0.778-0.116l0.063-0.914c0.191,0.05,0.461,0.083,0.636,0.083c1.922,0,1.636-4.918,1.636-6.846v-3.972
			H325.95z"/>
		<path fill="#344C57" d="M335.564,112.726v0.947h-3.336v10.685h-1.048v-10.685h-3.336v-0.947H335.564z"/>
		<path fill="#344C57" d="M338.498,112.726v8.74l-0.063,1.413h0.048l0.619-1.18l5.369-8.974h1.191v11.632h-1.049v-8.74l0.063-1.413
			h-0.047l-0.557,1.097l-5.433,9.057h-1.19v-11.632H338.498z"/>
		<path fill="#344C57" d="M349.664,112.726v5.135h5.782v-5.135h1.048v11.632h-1.048v-5.55h-5.782v5.55h-1.048v-11.632H349.664z"/>
		<path fill="#344C57" d="M365.151,112.726v0.947h-4.654v10.685h-1.048v-11.632H365.151z"/>
	</g>
	<rect x="4.467" y="134.172" fill="#344C57" width="361.436" height="2"/>
	<rect x="139.009" y="82.14" fill="#344C57" width="227" height="2"/>
	<rect x="28.692" y="25.716" fill="#344C57" width="31.329" height="56.59"/>
	<rect x="95.759" y="3.842" fill="#91202B" width="31.318" height="78.464"/>
	<rect x="5.052" y="32.985" fill="#2A3234" width="31.646" height="49.32"/>
	<rect x="51.348" y="19.005" fill="#778B96" width="31.022" height="63.301"/>
	<rect x="73.729" y="11.502" fill="#AE9FAD" width="30.672" height="70.804"/>
	<rect x="28.692" y="115.693" fill="#344C57" width="31.329" height="12.052"/>
	<rect x="95.759" y="115.693" fill="#91202B" width="31.318" height="12.052"/>
	<rect x="5.052" y="115.693" fill="#2A3234" width="31.646" height="12.051"/>
	<rect x="51.348" y="115.693" fill="#778B96" width="31.022" height="12.051"/>
	<rect x="73.729" y="115.693" fill="#AE9FAD" width="30.672" height="12.052"/>
	<g>
		<path fill="#344C57" d="M144.959,10.862c3.467,0,4.867,1.924,4.867,4.179c0,1.567-0.712,3.039-2.873,3.752v0.071
			c1.994,0.38,3.348,1.97,3.348,3.94c0,4.63-4.701,4.678-5.484,4.678h-4.297v-16.62H144.959z M142.086,18.223h2.659
			c2.208,0,3.395-1.354,3.395-3.157c0-2.019-1.52-2.85-3.348-2.85h-2.707V18.223z M142.086,26.129h2.517
			c1.401,0,4.013-0.261,4.013-3.3c0-2.065-1.615-3.253-3.847-3.253h-2.683V26.129z"/>
		<path fill="#344C57" d="M155.238,10.862v6.814h2.659c0.997,0,5.936,0,5.936,4.867c0,2.564-1.971,4.938-5.128,4.938h-5.034v-16.62
			H155.238z M155.238,26.129h2.991c2.73,0,3.918-1.733,3.918-3.537c0-3.324-2.92-3.562-4.274-3.562h-2.635V26.129z M168.059,10.862
			v16.62h-1.567v-16.62H168.059z"/>
		<path fill="#344C57" d="M183.727,27.031c-0.974,0.309-2.398,0.641-4.155,0.641c-5.77,0-8.334-4.036-8.334-8.238
			c0-4.416,2.422-8.761,8.5-8.761c1.472,0,2.635,0.189,3.823,0.641l-0.143,1.425c-1.805-0.712-3.348-0.712-3.823-0.712
			c-4.179,0-6.671,3.252-6.671,7.431c0,4.25,2.944,6.862,6.529,6.862c1.496,0,3.039-0.285,4.273-0.784V27.031z"/>
		<path fill="#344C57" d="M197.104,10.862v15.267h7.503V10.862h1.567v16.62h-19.707v-16.62h1.567v15.267h7.503V10.862H197.104z"/>
		<path fill="#344C57" d="M217.403,10.862l6.601,16.62h-1.686L220.49,22.9h-8.215l-1.828,4.582h-1.686l6.601-16.62H217.403z
			 M216.359,12.406l-0.547,1.566l-3.015,7.574h7.17l-3.015-7.574l-0.547-1.566H216.359z"/>
		<path fill="#344C57" d="M236.704,27.482h-1.567v-7.099h-3.348l-3.703,7.099h-1.924l4.036-7.408
			c-2.137-0.641-3.323-2.397-3.323-4.416c0-2.469,1.638-4.796,5.176-4.796h4.653V27.482z M235.137,12.216h-3.229
			c-2.113,0-3.348,1.52-3.348,3.442c0,2.279,1.662,3.372,3.348,3.372h3.229V12.216z"/>
		<path fill="#344C57" d="M257.615,10.862v15.267h7.503V10.862h1.567v16.62h-19.707v-16.62h1.567v15.267h7.503V10.862H257.615z"/>
		<path fill="#344C57" d="M272.415,10.862v6.72v0.949h0.023l0.57-0.594l7.099-7.075h1.994l-8.072,7.859l8.975,8.761h-2.208
			l-7.954-7.954l-0.403-0.451l-0.023,0.024v0.783v7.598h-1.567v-16.62H272.415z"/>
		<path fill="#344C57" d="M290.813,10.673c5.081,0,7.526,4.06,7.526,8.523c0,5.484-3.3,8.476-7.526,8.476
			c-4.226,0-7.526-2.991-7.526-8.476C283.287,14.732,285.732,10.673,290.813,10.673z M290.813,26.319
			c2.896,0,5.841-2.137,5.841-7.123s-2.944-7.17-5.841-7.17s-5.841,2.184-5.841,7.17S287.917,26.319,290.813,26.319z"/>
		<path fill="#344C57" d="M312.143,10.862v16.62h-1.567V12.216h-6.387v4.393c0,5.65,0.071,11.063-3.894,11.063
			c-0.238,0-0.665-0.023-1.164-0.166l0.096-1.306c0.284,0.071,0.688,0.119,0.949,0.119c2.873,0,2.445-7.028,2.445-9.782v-5.675
			H312.143z"/>
		<path fill="#344C57" d="M323.348,10.862l6.601,16.62h-1.686l-1.828-4.582h-8.215l-1.828,4.582h-1.686l6.601-16.62H323.348z
			 M322.304,12.406l-0.546,1.566l-3.016,7.574h7.17l-3.016-7.574l-0.546-1.566H322.304z"/>
		<path fill="#344C57" d="M144.065,37.469c3.406,0,5.045,2.925,5.045,6.141c0,3.951-2.212,6.106-5.045,6.106
			s-5.045-2.155-5.045-6.106C139.021,40.394,140.66,37.469,144.065,37.469z M144.065,48.741c1.941,0,3.915-1.54,3.915-5.132
			s-1.974-5.166-3.915-5.166c-1.942,0-3.915,1.574-3.915,5.166S142.124,48.741,144.065,48.741z"/>
		<path fill="#344C57" d="M154.216,37.605c2.069,0,3.342,1.402,3.342,3.455s-1.257,3.455-3.342,3.455h-1.846v5.063h-1.051V37.605
			H154.216z M152.371,43.541h1.639c0.604,0,2.419-0.12,2.419-2.48c0-2.463-2.133-2.48-2.419-2.48h-1.639V43.541z"/>
		<path fill="#344C57" d="M165.229,37.605v0.975h-4.663v10.999h-1.051V37.605H165.229z"/>
		<path fill="#344C57" d="M170.066,37.605l4.424,11.974h-1.13l-1.226-3.302h-5.506l-1.226,3.302h-1.13l4.424-11.974H170.066z
			 M169.366,38.718L169,39.847l-2.021,5.456h4.806l-2.021-5.456l-0.366-1.129H169.366z"/>
		<path fill="#344C57" d="M177.306,37.605v5.285h5.793v-5.285h1.05v11.974h-1.05v-5.713h-5.793v5.713h-1.051V37.605H177.306z"/>
		<path fill="#344C57" d="M188.025,37.605v8.997l-0.064,1.454h0.049l0.62-1.215l5.38-9.236h1.193v11.974h-1.051v-8.997l0.064-1.454
			h-0.049l-0.557,1.129l-5.443,9.322h-1.193V37.605H188.025z"/>
		<path fill="#344C57" d="M198.709,42.84h1.306c2.181,0,2.626-1.266,2.626-2.378c0-1.334-1.098-2.019-2.609-2.019
			c-0.908,0-1.831,0.274-2.674,0.667l-0.08-1.077c0.907-0.359,1.767-0.564,2.754-0.564c0.35,0,3.739-0.086,3.739,3.011
			c0,1.402-0.652,2.445-1.813,2.788v0.034c1.447,0.291,2.18,1.539,2.18,3.147c0,2.326-2.196,3.267-4.122,3.267
			c-1.226,0-2.212-0.342-3.008-0.753l0.144-1.061c0.827,0.479,1.861,0.839,2.864,0.839c1.751,0,2.992-0.958,2.992-2.429
			c0-1.574-1.034-2.498-2.944-2.498h-1.354V42.84z"/>
		<path fill="#344C57" d="M210.803,37.605l4.424,11.974h-1.13l-1.226-3.302h-5.506l-1.227,3.302h-1.129l4.424-11.974H210.803z
			 M210.102,38.718l-0.365,1.129l-2.021,5.456h4.807l-2.021-5.456l-0.366-1.129H210.102z"/>
		<path fill="#344C57" d="M218.041,37.605v10.999h5.921V37.605h1.05v10.999h1.321v3.574h-1.051v-2.6h-8.291V37.605H218.041z"/>
		<path fill="#344C57" d="M229.346,37.605v8.997l-0.063,1.454h0.048l0.621-1.215l5.379-9.236h1.193v11.974h-1.05v-8.997l0.063-1.454
			h-0.048l-0.558,1.129l-5.442,9.322h-1.193V37.605H229.346z"/>
		<path fill="#344C57" d="M240.4,37.605v8.997l-0.063,1.454h0.048l0.621-1.215l5.379-9.236h1.193v11.974h-1.05v-8.997l0.063-1.454
			h-0.048l-0.558,1.129l-5.442,9.322h-1.193V37.605H240.4z"/>
		<path fill="#344C57" d="M255.514,37.605v8.997l-0.063,1.454h0.048l0.621-1.215l5.379-9.236h1.193v11.974h-1.05v-8.997l0.063-1.454
			h-0.048l-0.558,1.129l-5.442,9.322h-1.193V37.605H255.514z"/>
		<path fill="#344C57" d="M269.642,37.605l2.864,6.363l0.573,1.505h0.048l0.493-1.437l2.482-6.432h1.146l-3.947,10.075
			c-0.414,1.043-0.764,2.035-2.133,2.035c-0.382,0-0.748-0.051-1.13-0.205l0.048-0.958c0.318,0.171,0.621,0.188,0.939,0.188
			c0.589,0,0.875-0.411,1.226-1.352l0.271-0.719l-4.059-9.065H269.642z"/>
		<path fill="#344C57" d="M287.042,37.605v11.974h-1.05V38.58h-5.81v10.999h-1.05V37.605H287.042z"/>
		<path fill="#344C57" d="M292.765,37.605c2.068,0,3.342,1.402,3.342,3.455s-1.257,3.455-3.342,3.455h-1.847v5.063h-1.05V37.605
			H292.765z M290.918,43.541h1.64c0.604,0,2.419-0.12,2.419-2.48c0-2.463-2.133-2.48-2.419-2.48h-1.64V43.541z"/>
		<path fill="#344C57" d="M301.806,37.605l4.424,11.974h-1.13l-1.226-3.302h-5.507l-1.225,3.302h-1.131l4.425-11.974H301.806z
			 M301.104,38.718l-0.365,1.129l-2.021,5.456h4.807l-2.021-5.456l-0.366-1.129H301.104z"/>
		<path fill="#344C57" d="M310.97,37.605c2.324,0,3.263,1.386,3.263,3.011c0,1.129-0.478,2.189-1.926,2.702v0.052
			c1.337,0.273,2.244,1.42,2.244,2.839c0,3.336-3.151,3.37-3.677,3.37h-2.88V37.605H310.97z M309.044,42.908h1.783
			c1.479,0,2.275-0.975,2.275-2.275c0-1.453-1.019-2.053-2.244-2.053h-1.814V42.908z M309.044,48.604h1.688
			c0.938,0,2.689-0.188,2.689-2.378c0-1.488-1.082-2.344-2.578-2.344h-1.799V48.604z"/>
		<path fill="#344C57" d="M324.425,37.605v11.974h-1.051V38.58h-4.281v3.165c0,4.071,0.048,7.971-2.61,7.971
			c-0.158,0-0.445-0.017-0.779-0.119l0.063-0.941c0.191,0.052,0.462,0.086,0.637,0.086c1.926,0,1.64-5.063,1.64-7.048v-4.088
			H324.425z"/>
		<path fill="#344C57" d="M332.662,37.605v0.975h-4.361v4.328h4.154v0.975h-4.154v4.722h4.663v0.975h-5.713V37.605H332.662z"/>
		<path fill="#344C57" d="M336.045,37.605v5.285h5.793v-5.285h1.051v11.974h-1.051v-5.713h-5.793v5.713h-1.05V37.605H336.045z"/>
		<path fill="#344C57" d="M346.765,37.605v8.997l-0.063,1.454h0.048l0.621-1.215l5.379-9.236h1.193v11.974h-1.05v-8.997l0.063-1.454
			h-0.048l-0.558,1.129l-5.442,9.322h-1.193V37.605H346.765z"/>
		<path fill="#344C57" d="M363.17,49.579h-1.05v-5.114h-2.244l-2.483,5.114h-1.289l2.706-5.337
			c-1.433-0.462-2.229-1.728-2.229-3.182c0-1.778,1.099-3.455,3.47-3.455h3.119V49.579z M362.12,38.58h-2.165
			c-1.416,0-2.244,1.095-2.244,2.48c0,1.643,1.114,2.429,2.244,2.429h2.165V38.58z"/>
		<path fill="#344C57" d="M140.166,64.937h1.305c2.18,0,2.626-1.266,2.626-2.378c0-1.334-1.098-2.019-2.61-2.019
			c-0.907,0-1.831,0.274-2.674,0.667l-0.08-1.077c0.907-0.359,1.767-0.564,2.753-0.564c0.35,0,3.74-0.086,3.74,3.011
			c0,1.402-0.652,2.445-1.814,2.788v0.034c1.448,0.291,2.18,1.539,2.18,3.147c0,2.326-2.196,3.267-4.122,3.267
			c-1.226,0-2.212-0.342-3.008-0.753l0.143-1.061c0.828,0.479,1.862,0.839,2.865,0.839c1.75,0,2.992-0.958,2.992-2.429
			c0-1.574-1.035-2.498-2.944-2.498h-1.353V64.937z"/>
		<path fill="#344C57" d="M155.429,59.702v10.999h1.289v3.574h-1.05v-2.6h-8.053v2.6h-1.05v-3.574h0.939
			c1.607-2.583,1.56-4.653,1.56-7.715v-3.284H155.429z M150.113,60.677v2.446c0,2.601,0.08,4.824-1.417,7.578h5.682V60.677H150.113z
			"/>
		<path fill="#344C57" d="M161.578,59.702c2.069,0,3.342,1.402,3.342,3.455s-1.257,3.455-3.342,3.455h-1.846v5.063h-1.051V59.702
			H161.578z M159.732,65.638h1.639c0.604,0,2.419-0.12,2.419-2.48c0-2.463-2.133-2.48-2.419-2.48h-1.639V65.638z"/>
		<path fill="#344C57" d="M170.618,59.702l4.424,11.974h-1.13l-1.226-3.302h-5.506l-1.226,3.302h-1.13l4.424-11.974H170.618z
			 M169.918,60.814l-0.366,1.129l-2.021,5.456h4.806l-2.021-5.456l-0.366-1.129H169.918z"/>
		<path fill="#344C57" d="M179.783,59.702c2.324,0,3.263,1.386,3.263,3.011c0,1.129-0.478,2.189-1.926,2.702v0.052
			c1.337,0.273,2.244,1.42,2.244,2.839c0,3.336-3.151,3.37-3.676,3.37h-2.881V59.702H179.783z M177.857,65.005h1.782
			c1.48,0,2.276-0.975,2.276-2.275c0-1.454-1.019-2.053-2.244-2.053h-1.814V65.005z M177.857,70.701h1.687
			c0.939,0,2.69-0.188,2.69-2.378c0-1.488-1.083-2.344-2.578-2.344h-1.798V70.701z"/>
		<path fill="#344C57" d="M190.103,59.565c3.405,0,5.045,2.925,5.045,6.141c0,3.951-2.212,6.106-5.045,6.106
			s-5.045-2.155-5.045-6.106C185.058,62.49,186.697,59.565,190.103,59.565z M190.103,70.838c1.941,0,3.915-1.54,3.915-5.132
			s-1.974-5.166-3.915-5.166c-1.942,0-3.915,1.574-3.915,5.166S188.16,70.838,190.103,70.838z"/>
		<path fill="#344C57" d="M201.918,59.565c3.406,0,5.045,2.925,5.045,6.141c0,3.951-2.211,6.106-5.045,6.106
			c-2.832,0-5.045-2.155-5.045-6.106C196.873,62.49,198.513,59.565,201.918,59.565z M201.918,70.838c1.941,0,3.916-1.54,3.916-5.132
			s-1.975-5.166-3.916-5.166s-3.914,1.574-3.914,5.166S199.977,70.838,201.918,70.838z"/>
		<path fill="#344C57" d="M208.93,59.702l2.864,4.328l0.351,0.564h0.016l0.366-0.564l2.849-4.328h1.21l-3.772,5.628l4.17,6.346
			h-1.305l-2.881-4.396l-0.652-1.146h-0.032l-0.668,1.197l-2.802,4.345h-1.257l4.106-6.346l-3.867-5.628H208.93z"/>
		<path fill="#344C57" d="M221.684,59.702c2.068,0,3.342,1.402,3.342,3.455s-1.257,3.455-3.342,3.455h-1.847v5.063h-1.05V59.702
			H221.684z M219.837,65.638h1.64c0.604,0,2.419-0.12,2.419-2.48c0-2.463-2.133-2.48-2.419-2.48h-1.64V65.638z"/>
		<path fill="#344C57" d="M230.725,59.702l4.424,11.974h-1.13l-1.226-3.302h-5.507l-1.225,3.302h-1.131l4.425-11.974H230.725z
			 M230.023,60.814l-0.365,1.129l-2.021,5.456h4.807l-2.021-5.456l-0.366-1.129H230.023z"/>
		<path fill="#344C57" d="M237.963,59.702v5.285h5.793v-5.285h1.051v11.974h-1.051v-5.713h-5.793v5.713h-1.05V59.702H237.963z"/>
		<path fill="#344C57" d="M253.044,59.702v0.975h-4.361v4.328h4.154v0.975h-4.154v4.722h4.663v0.975h-5.713V59.702H253.044z"/>
		<path fill="#344C57" d="M256.427,59.702v5.285h5.793v-5.285h1.051v11.974h-1.051v-5.713h-5.793v5.713h-1.05V59.702H256.427z"/>
		<path fill="#344C57" d="M267.146,59.702v8.997l-0.063,1.454h0.048l0.621-1.214l5.379-9.237h1.193v11.974h-1.05v-8.997l0.063-1.454
			h-0.048l-0.558,1.129l-5.442,9.322h-1.193V59.702H267.146z"/>
		<path fill="#344C57" d="M282.562,59.702v0.975H278.2v4.328h4.154v0.975H278.2v4.722h4.663v0.975h-5.713V59.702H282.562z"/>
		<path fill="#344C57" d="M290.784,70.599l0.461-1.591l3.708-9.306h1.655v11.974h-1.05v-9.271l0.031-1.625h-0.063l-0.541,1.573
			l-3.692,9.322h-1.082l-3.692-9.322l-0.541-1.573h-0.063l0.031,1.625v9.271h-1.05V59.702h1.655l3.708,9.306l0.461,1.591H290.784z"
			/>
	</g>
	<g>
		<path fill="#344C57" d="M8.571,92.922c2.83,0,3.973,1.596,3.973,3.467c0,1.3-0.581,2.521-2.345,3.112v0.06
			c1.628,0.314,2.732,1.635,2.732,3.27c0,3.842-3.837,3.881-4.477,3.881H4.947V92.922H8.571z M6.226,99.028h2.17
			c1.802,0,2.771-1.123,2.771-2.62c0-1.675-1.24-2.364-2.732-2.364H6.226V99.028z M6.226,105.588H8.28
			c1.144,0,3.275-0.217,3.275-2.738c0-1.714-1.318-2.698-3.139-2.698h-2.19V105.588z"/>
		<path fill="#344C57" d="M25.646,92.922v12.666h6.124V92.922h1.279v13.789H16.964V92.922h1.279v12.666h6.124V92.922H25.646z"/>
		<path fill="#344C57" d="M43.126,92.764c4.147,0,6.143,3.369,6.143,7.072c0,4.551-2.694,7.032-6.143,7.032
			c-3.45,0-6.143-2.481-6.143-7.032C36.983,96.133,38.979,92.764,43.126,92.764z M43.126,105.746c2.364,0,4.767-1.773,4.767-5.91
			s-2.403-5.949-4.767-5.949s-4.767,1.813-4.767,5.949S40.762,105.746,43.126,105.746z"/>
		<path fill="#344C57" d="M52.73,92.922l3.488,7.328l0.698,1.733h0.058l0.601-1.655l3.023-7.406h1.395l-4.806,11.603
			c-0.504,1.201-0.93,2.344-2.597,2.344c-0.465,0-0.911-0.059-1.376-0.236l0.058-1.103c0.387,0.196,0.756,0.217,1.143,0.217
			c0.717,0,1.066-0.474,1.492-1.557l0.33-0.827l-4.941-10.44H52.73z"/>
		<path fill="#344C57" d="M66.63,98.949h1.589c2.655,0,3.197-1.457,3.197-2.738c0-1.536-1.337-2.324-3.178-2.324
			c-1.104,0-2.229,0.315-3.255,0.769l-0.097-1.241c1.105-0.414,2.151-0.65,3.353-0.65c0.427,0,4.554-0.099,4.554,3.468
			c0,1.615-0.794,2.816-2.209,3.211v0.039c1.763,0.335,2.655,1.772,2.655,3.625c0,2.679-2.674,3.762-5.019,3.762
			c-1.492,0-2.694-0.394-3.663-0.866l0.174-1.222c1.008,0.552,2.267,0.966,3.488,0.966c2.131,0,3.643-1.104,3.643-2.798
			c0-1.813-1.26-2.876-3.585-2.876H66.63V98.949z"/>
		<path fill="#344C57" d="M81.178,100.939v1.044h-4.263v-1.044H81.178z"/>
		<path fill="#344C57" d="M86.969,92.922v5.574v0.788h0.02l0.465-0.492l5.794-5.87h1.628l-6.589,6.521l7.325,7.269H93.81l-6.492-6.6
			l-0.329-0.374l-0.02,0.02v0.65v6.304H85.69V92.922H86.969z"/>
		<path fill="#344C57" d="M106.203,105.47l0.562-1.832l4.515-10.716h2.016v13.789h-1.279V96.034l0.039-1.871h-0.078l-0.659,1.812
			l-4.496,10.736h-1.318l-4.496-10.736l-0.659-1.812h-0.078l0.039,1.871v10.677h-1.279V92.922h2.015l4.515,10.716l0.562,1.832
			H106.203z"/>
		<path fill="#344C57" d="M119.247,92.922v5.574v0.788h0.02l0.465-0.492l5.794-5.87h1.628l-6.589,6.521l7.325,7.269h-1.802
			l-6.492-6.6l-0.33-0.374l-0.02,0.02v0.65v6.304h-1.279V92.922H119.247z"/>
	</g>
</g>
</svg>
