<svg id="Layer_1" data-name="Layer 1" xmlns="http://www.w3.org/2000/svg" viewBox="0 0 76.69 24.37"><defs><style>.cls-1{fill:#009ee3;}.cls-2{fill:#e3000b;}.cls-3{fill:#ffdf00;}.cls-4{fill:#94c11a;}.cls-5{fill:#f39100;}.cls-6{fill:#941680;}</style></defs><path class="cls-1" d="M522.94,426.32c-2,3.67,1,3.18,1.58,2.7,2.22-2,1.77-6.35,12.15-6.21s12.82,8.52,23,6.71,8.13-6,20.74-6.71a16.4,16.4,0,0,1,13.88,5.85l.44.45,2.22-2.69-.55-.92s-2.65-6.05-11.08-7.59c-13.74-2.53-14.72,6.44-24.82,7s-14-6.83-21-7.57c-12-1.25-14.82,5.82-16.52,9Z" transform="translate(-520.23 -408.96)"/><path class="cls-2" d="M534.76,410.64l-1.77.45.82,7.89,1.86-.42.34,1.56-5.78,1.41L530,420l1.32-.41-.48-3.82-4.13.78,1.12,1.76,1.64-.41.72,1.4L523.68,421l-.69-1.4,2.29-.61-3.13-5.1-1.13.41-.79-1.25,4.59-1.83.88,1.3-1,.32,1.05,1.86,4.76-1.06-.27-1.82-1,.26-.41-1.53,5.68-1.56Z" transform="translate(-520.23 -408.96)"/><path class="cls-3" d="M543.22,431.46l-.07-1.35,1.37.14-.29-4.68L537,429.24l2,.94-.78,1.14-5.83-2.49.52-1.44,1.74.8,1.58-5.57-1.18-.21.11-1.45,5.52,1-.23,1.38-2.13-.36-1,4,6.84-3.83-1.36-.94.92-1.18,4.85,2.77-1,1.14-1.45-.88.59,6.51,2,.31.08,1.25Z" transform="translate(-520.23 -408.96)"/><path class="cls-4" d="M560.82,420.85v-1.68L557.5,419l-.69,5.46,3,.46-.24,1.5-7.8-.85.17-1.54,2.55.25.67-5.28-1.84-.06.15-1.73,7.37.21-.06-.86,2,.1v4.16Z" transform="translate(-520.23 -408.96)"/><path class="cls-5" d="M574.89,433.32l-.12-1.39,2.14-.09-.55-4.43-2.69,2.91-2,.39-2.44-2.28.11,2.7,1.45,0-.08,1.6-6.3.23-.06-1.62,2.32-.11-.12-5.61-2.41.81-.74-1.71,6.51-2.26.81,1.67-2,.75,3.45,3.39,3.85-3.81-1.17-.24.79-1.57,5.92,1.89-.83,1.54-2.17-.7.82,6.47,3.11,0,.14,1.32Z" transform="translate(-520.23 -408.96)"/><path class="cls-6" d="M585.08,421.73l-.68-1.44,1.6-.36-.89-1.16-5.82-.85-1,1.61.89.22-.65,1.17-5.48-1.07.9-1.31,1.68.33,5.69-8.79,1.74.64,5.56,8.56,2-.28.69,1.41Zm-3.15-7.91-1.8,2.84,4,.49Z" transform="translate(-520.23 -408.96)"/></svg>