<svg id="Слой_2" data-name="Слой 2" xmlns="http://www.w3.org/2000/svg" viewBox="0 0 177.62 34.2"><defs><style>.cls-1{fill:#0080a8;}</style></defs><path class="cls-1" d="M38.4,3.71H4.67v34.2h34.2V3.71ZM9,18.64a2.19,2.19,0,1,1-2.19,2.19A2.2,2.2,0,0,1,9,18.64m10.5,17.49a19,19,0,0,0,7.77-14.48h5.5l-3.5,3.46v2.13l6.46-6.39-6.46-6.38v2.12l3.5,3.46h-5.5A19,19,0,0,0,19.51,5.57V4.65H37.94V37H19.51ZM17.18,37l2.33-.84L17.18,37H5.61V4.65H17.18V6.3h.32a17.26,17.26,0,0,1,8,13.75H24.48A16.18,16.18,0,0,0,16.92,7.21l-.77,1.23A14.73,14.73,0,0,1,23,20.05H21.69A13.39,13.39,0,0,0,15.45,9.58l-.63,1a12.16,12.16,0,0,1,5.66,9.45H18.89A10.56,10.56,0,0,0,14,12l-.5.81a9.59,9.59,0,0,1,4.46,7.29H16.11a7.77,7.77,0,0,0-3.59-5.74l-.39.62a7,7,0,0,1,3.24,5.12h-2a5,5,0,0,0-2.26-3.39l-.28.45a4.4,4.4,0,0,1,0,7.48l.28.46a5,5,0,0,0,2.26-3.4h2a7,7,0,0,1-3.24,5.12l.39.62a7.77,7.77,0,0,0,3.59-5.74h1.83A9.61,9.61,0,0,1,13.48,29l.5.8a10.55,10.55,0,0,0,4.91-8.1h1.59a12.16,12.16,0,0,1-5.66,9.45l.63,1a13.42,13.42,0,0,0,6.24-10.48H23a14.71,14.71,0,0,1-6.87,11.61l.77,1.24a16.19,16.19,0,0,0,7.56-12.85h1.06a17.23,17.23,0,0,1-8.06,13.76l0,0h-.32Z" transform="translate(-4.67 -3.71)"/><path class="cls-1" d="M48.1,28.09H44.77V13.3h9.45v2.88H48.1Z" transform="translate(-4.67 -3.71)"/><path class="cls-1" d="M60.25,22V19.3h5.39c-.3-3.42-2.52-3.55-3.53-3.55-2.44,0-3.13,1.5-3.25,2.47H55.47c.16-2.38,1.75-5.34,6.44-5.34,5.85,0,7.33,4.14,7.33,7.62,0,7.61-5.19,8-7.11,8-4.3,0-6.62-2.54-6.82-5.75H58.7a3.07,3.07,0,0,0,3.39,2.88c1.35,0,3.47-.49,3.55-3.64Z" transform="translate(-4.67 -3.71)"/><path class="cls-1" d="M71,20.69c0-3.44,1.57-7.81,7.14-7.81,4.87,0,7.15,3.34,7.15,7.81S83,28.51,78.13,28.51C72.56,28.51,71,24.14,71,20.69Zm10.7,0c0-1.3-.15-4.94-3.56-4.94-2.28,0-3.55,1.57-3.55,4.94,0,3.87,1.7,4.95,3.55,4.95C81.52,25.64,81.69,21.94,81.69,20.69Z" transform="translate(-4.67 -3.71)"/><path class="cls-1" d="M86.45,16.18V13.3H98.32v2.88H94.06V28.09H90.73V16.18Z" transform="translate(-4.67 -3.71)"/><path class="cls-1" d="M105.74,13.3l5.31,14.79h-3.53l-.91-2.77h-5.13l-.89,2.77H97.08l5.29-14.79Zm.14,9.51-1.81-5.64-1.86,5.64Z" transform="translate(-4.67 -3.71)"/><path class="cls-1" d="M118.94,13.3c2.87,0,5.33,1.12,5.33,4.78,0,4.62-3.7,4.92-5.41,4.92h-3.17v5.09h-3.33V13.3Zm-3.25,6.82h2.6c1.58,0,2.39-.59,2.39-2,0-2-1.64-1.92-2.39-1.92h-2.6Z" transform="translate(-4.67 -3.71)"/><path class="cls-1" d="M126.42,21.12h5.84v2.64h-5.84Z" transform="translate(-4.67 -3.71)"/><path class="cls-1" d="M138.86,17.53h-.06V28.09h-3.33V13.3h4.68l3.37,10.16,3.37-10.16h4.69V28.09h-3.34V17.53h-.06l-3.53,10.56h-2.26Z" transform="translate(-4.67 -3.71)"/><path class="cls-1" d="M164.91,19.17V21.9H158v3.31h8v2.88H154.68V13.3h11.16v2.88H158v3Z" transform="translate(-4.67 -3.71)"/><path class="cls-1" d="M182.29,25.21l-.16,6.21h-2.95V28.09h-9.55v3.33h-2.95l-.16-6.21h1.4a15.11,15.11,0,0,0,2.14-8.49V13.3h10.23V25.21Zm-9.11-9,0,1.75c0,3.31-.46,5.4-1.63,7.28H177v-9Z" transform="translate(-4.67 -3.71)"/></svg>