<?xml version="1.0" encoding="utf-8"?>
<!-- Generator: Adobe Illustrator 26.0.2, SVG Export Plug-In . SVG Version: 6.00 Build 0)  -->
<svg version="1.1" id="Слой_1" xmlns="http://www.w3.org/2000/svg" xmlns:xlink="http://www.w3.org/1999/xlink" x="0px" y="0px"
	 viewBox="0 0 372 75" style="enable-background:new 0 0 372 75;" xml:space="preserve">
<style type="text/css">
	.st0{fill:#020203;}
</style>
<g>
	<path d="M37.6,0.2c6.7,5.4,13.4,10.7,20,16c5.4,4.3,10.8,8.7,16.3,13c1.1,0.9,1.3,1.7,0.9,3c-4.7,13.8-9.3,27.6-13.9,41.4
		c-0.7,2-0.7,2-2.8,2c-13.8,0-27.6,0-41.4,0c-1.8,0-1.9-0.1-2.5-1.8c-4.7-14-9.3-27.9-14-41.9C-0.1,30.8,0.1,30,1,29.2
		c11.9-9.5,23.9-19,35.8-28.5C37,0.6,37.3,0.4,37.6,0.2z M37.5,8.1c-0.4,0.3-0.8,0.6-1.2,0.9c-9.3,7.4-18.7,14.9-28,22.3
		c-1,0.8-1.2,1.5-0.8,2.7c3.8,11.2,7.5,22.5,11.3,33.7c0.4,1.2,1,1.6,2.2,1.6c11,0,21.9,0,32.9,0c1.7,0,1.9-0.2,2.5-1.8
		c0.9-2.8,1.9-5.7,2.8-8.5c2.8-8.4,5.6-16.8,8.4-25.2c0.3-0.8,0.5-1.5-0.3-2.1c-4.3-3.4-8.5-6.8-12.8-10.2c-2.3-1.9-4.7-3.7-7-5.6
		C44.1,13.4,40.8,10.8,37.5,8.1z"/>
	<path d="M34.9,59.9c-0.4-0.5-0.7-1-0.9-1.2c1.8-1.8,3.6-3.4,5.1-5.3c2.3-2.8,3.3-6.1,3.8-9.7c0.1-0.8,0-1.3-1.1-1.1
		c-0.6,6-3.3,11-8.6,14.5c-0.3-0.4-0.6-0.7-0.9-1.1c1.1-1,2.1-1.9,3.1-2.8c2.7-2.7,4.1-6,4.6-9.7c0-0.3-0.2-0.6-0.4-1
		c-0.3,0.2-0.8,0.4-0.9,0.7c-0.7,1.7-1.3,3.5-2,5.2c-1,2.6-2.9,4.4-5.2,5.9c-0.2-0.2-0.3-0.3-0.4-0.5c-0.1-0.2-0.2-0.3-0.3-0.6
		c3.7-2.6,5.9-6,6.3-10.5c-1.4-0.6-1.6-0.6-2,0.9c-0.7,2.7-1.8,5.1-4,6.9c-0.4,0.3-1,0.5-1.5,0.8c-0.1-0.1-0.2-0.2-0.3-0.3
		c0.3-0.4,0.6-0.8,1-1.1c2.2-1.9,3.5-4.3,3.8-7.2c-1.7-0.5-1.9-0.4-2.4,1.2c-0.5,1.7-1.4,3.1-2.7,4.3c-0.3,0.3-0.7,0.5-1.2,0.6
		c1.2-1.9,3.2-3.4,3.2-6c-1.3-0.6-1.7-0.5-2.5,0.6c-0.5,0.8-1.1,1.6-1.9,2.3c2.5-3.1,2.1-5.9-0.7-8.7c0.2-0.1,0.4-0.1,0.5-0.2
		c0.5,0.7,1.2,1.3,1.6,2.1c0.8,1.6,1.1,1.8,3.1,1.5c-0.4-2.3-1.7-4-3.1-5.8c2.4,1.2,3.4,3.4,4,5.8c0.7,0,1.3,0,2,0
		c-0.3-3.1-1.7-5.5-3.9-7.4c-0.1-0.1-0.3-0.2-0.4-0.3c-0.2-0.3-0.3-0.6-0.5-0.9c0.4,0.1,0.9,0,1.1,0.2c1.8,1.3,3.2,3,3.9,5.2
		c0.2,0.7,0.4,1.4,0.5,2.1c0.3,1.3,0.7,1.5,2.1,1.1c-0.4-4.1-2.3-7.5-5.6-10c-0.7-0.6-0.8-1-0.1-1.7c4.3,2.8,6.5,6.8,7.1,11.8
		c0.3,0,0.6,0,0.8,0.1c0.2,0,0.4,0,0.7-0.1c-0.4-5.7-3.2-10-7.7-13.2c0.3-0.4,0.5-0.8,0.8-1.3c5.2,3.5,8,8.3,8.7,14.5
		c0.3,0,0.7,0.1,1.2,0.1c-0.5-6.8-3.7-11.9-9.1-15.8c0.3-0.5,0.6-1,1-1.5c6.2,4.1,9.5,9.9,10.2,17.3c2.1,0,4.1,0,6,0
		c-1-1-2-2.1-3-3.2c-0.8-0.8-0.8-1.2-0.4-2.2c2.2,2.1,4.5,4.2,6.9,6.5c-2.5,2.2-4.8,4.4-7.1,6.4c-0.6-2.6,2.6-3.2,3.5-5.3
		c-1.9,0-3.8,0-5.8,0C44.3,50.1,41.1,55.8,34.9,59.9z"/>
	<path d="M24,39.2c1.4,0,2.5,1.2,2.4,2.5c-0.1,1.3-1.3,2.5-2.5,2.4c-1.3,0-2.4-1.2-2.4-2.6C21.6,40.2,22.7,39.2,24,39.2z"/>
</g>
<g>
	<path class="st0" d="M111.1,62.5c-16.1,0-25.6-9.5-25.6-26.3C85.5,19.6,95,10,110.6,10c12.7,0,22.2,7.5,23.3,17.9h-14.7
		c-1-3.7-4.3-6.2-8.6-6.2c-6.3,0-10.1,5.2-10.1,14.2c0,9.2,4.3,14.8,10.8,14.8c4.9,0,8.3-2.7,8.7-6.8l0.1-0.7h-7.7v-9.9h22.1v6.7
		C134.6,54,125.8,62.5,111.1,62.5z"/>
	<path class="st0" d="M176.3,61.7h-35.8V10.9h35.8v11.8h-20.9V31H175v10.7h-19.6v8.2h20.9V61.7z"/>
	<path class="st0" d="M233.1,36.3c0,16.2-9.9,26.2-25.6,26.2c-15.7,0-25.6-10-25.6-26.2c0-16.2,9.9-26.3,25.6-26.3
		C223.3,10,233.1,20.1,233.1,36.3z M197.2,36.3c0,8.8,4.1,14.3,10.4,14.3s10.4-5.6,10.4-14.3c0-8.8-4.1-14.4-10.4-14.4
		S197.2,27.5,197.2,36.3z"/>
	<path class="st0" d="M247.9,61.7V22.8h-13.4V10.9h41.6v11.8h-13.4v38.9H247.9z"/>
	<path class="st0" d="M305.4,51.6h-15.5l-2.6,10.1h-15.2l16.6-50.7h18.7l16.6,50.7H308L305.4,51.6z M292.7,41.1h10.1l-4.9-18.4h-0.3
		L292.7,41.1z"/>
	<path class="st0" d="M343.4,61.7h-14.9V10.9H351c13.5,0,20.5,6.4,20.5,17.2c0,6-2.9,11.7-8.2,14.3l9.6,19.2h-16.7l-8-17h-4.9V61.7z
		 M343.4,34.8h6.2c4.2,0,6.8-2.6,6.8-6.4c0-3.8-2.7-6.5-6.7-6.5h-6.2V34.8z"/>
</g>
</svg>
